Screens....: http://img10.imageshack.us/img10/915/avatarae.jpg
            http://img14.imageshack.us/img14/4996/avatarbl.jpg
            http://img141.imageshack.us/img141/1030/avatarcf.jpg
            http://img10.imageshack.us/img10/8692/avatardt.jpg

 A paraplegic marine dispatched to the planet Pandora on a unique mission becomes
torn between following his orders and protecting the world he feels is his home.

Well well well, what do we have here? Another TeaM-MaFia classic?. OK thanks
to Tol for both audios and our friends in russia who are always great with
speed on cams. I gotta say, this was THE biggest pain in the ass to synchronize,
can't complain though seeing as how we already have 2 audios done and
there's still nothing in sight hehe.

Format                           : AVI
Format/Info                      : Audio Video Interleave
Format profile                   : OpenDML
File size                        : 2.16 GiB
Duration                         : 2h 31mn
Overall bit rate                 : 2 044 Kbps
Writing application              : VirtualDubMod 1.5.10.2 (build 2542/release)
Writing library                  : VirtualDubMod build 2542/release

Video
ID                               : 0
Format                           : MPEG-4 Visual
Format profile                   : AdvancedSimple@L5
Format settings, BVOP            : Yes
Format settings, QPel            : No
Format settings, GMC             : No warppoints
Format settings, Matrix          : Default (H.263)
Muxing mode                      : Packed bitstream
Codec ID                         : XVID
Codec ID/Hint                    : XviD
Duration                         : 2h 31mn
Bit rate                         : 1 641 Kbps
Width                            : 608 pixels
Height                           : 248 pixels
Display aspect ratio             : 2.452
Frame rate                       : 25.000 fps
Resolution                       : 24 bits
Colorimetry                      : 4:2:0
Scan type                        : Progressive
Bits/(Pixel*Frame)               : 0.435
Stream size                      : 1.73 GiB (80%)
Writing library                  : XviD 1.1.2 (UTC 2006-11-01)

Audio #1
ID                               : 1
Format                           : AC-3
Format/Info                      : Audio Coding 3
Codec ID                         : 2000
Duration                         : 2h 31mn
Bit rate mode                    : Constant
Bit rate                         : 192 Kbps
Channel(s)                       : 2 channels
Channel positions                : L R
Sampling rate                    : 48.0 KHz
Stream size                      : 208 MiB (9%)
Alignment                        : Split accross interleaves
Interleave, duration             : 40 ms (1.00 video frame)
Interleave, preload duration     : 500 ms

Audio #2
ID                               : 2
Format                           : AC-3
Format/Info                      : Audio Coding 3
Codec ID                         : 2000
Duration                         : 2h 31mn
Bit rate mode                    : Constant
Bit rate                         : 192 Kbps
Channel(s)                       : 2 channels
Channel positions                : L R
Sampling rate                    : 48.0 KHz
Stream size                      : 208 MiB (9%)
Alignment                        : Split accross interleaves
Interleave, duration             : 40 ms (1.00 video frame)
Interleave, preload duration     : 500 ms